<svg width="17" height="16" viewBox="0 0 17 16" fill="none" xmlns="http://www.w3.org/2000/svg">
<path d="M4.02 8.56C2.99333 8.56 2.15333 8.21333 1.5 7.52C0.86 6.81333 0.54 5.87333 0.54 4.7C0.54 3.52667 0.86 2.59333 1.5 1.9C2.15333 1.19333 2.99333 0.84 4.02 0.84C5.04667 0.84 5.88 1.19333 6.52 1.9C7.16 2.59333 7.48 3.52667 7.48 4.7C7.48 5.87333 7.16 6.81333 6.52 7.52C5.88 8.21333 5.04667 8.56 4.02 8.56ZM12.36 0.999999H14.74L5.18 15H2.8L12.36 0.999999ZM4.02 6.92C4.47333 6.92 4.82667 6.73333 5.08 6.36C5.34667 5.98667 5.48 5.43333 5.48 4.7C5.48 3.96667 5.34667 3.41333 5.08 3.04C4.82667 2.66667 4.47333 2.48 4.02 2.48C3.58 2.48 3.22667 2.67333 2.96 3.06C2.69333 3.43333 2.56 3.98 2.56 4.7C2.56 5.42 2.69333 5.97333 2.96 6.36C3.22667 6.73333 3.58 6.92 4.02 6.92ZM13.52 15.16C12.8533 15.16 12.2533 15.0067 11.72 14.7C11.2 14.38 10.7933 13.9267 10.5 13.34C10.2067 12.7533 10.06 12.0733 10.06 11.3C10.06 10.5267 10.2067 9.84667 10.5 9.26C10.7933 8.67333 11.2 8.22667 11.72 7.92C12.2533 7.6 12.8533 7.44 13.52 7.44C14.5467 7.44 15.38 7.79333 16.02 8.5C16.6733 9.19333 17 10.1267 17 11.3C17 12.4733 16.6733 13.4133 16.02 14.12C15.38 14.8133 14.5467 15.16 13.52 15.16ZM13.52 13.52C13.9733 13.52 14.3267 13.3333 14.58 12.96C14.8467 12.5733 14.98 12.02 14.98 11.3C14.98 10.58 14.8467 10.0333 14.58 9.66C14.3267 9.27333 13.9733 9.08 13.52 9.08C13.08 9.08 12.7267 9.26667 12.46 9.64C12.1933 10.0133 12.06 10.5667 12.06 11.3C12.06 12.0333 12.1933 12.5867 12.46 12.96C12.7267 13.3333 13.08 13.52 13.52 13.52Z" fill="#333333"/>
</svg>
